<svg width="503" height="528" viewBox="0 0 503 528" fill="none" xmlns="http://www.w3.org/2000/svg">
<path d="M161.861 235.801C164.079 226.204 175.291 203.168 180.745 194.75C194.471 173.57 220.713 153.789 245.551 148.657C262.942 145.063 286.439 153.571 302.695 159.606C306.276 160.935 313.09 163.557 316.181 165.658C320.871 166.463 324.756 169.584 327.417 173.378C332.318 180.363 335.662 188.181 339.202 195.846C347.271 213.311 352.647 230.252 351.855 249.695C351.657 254.565 351.203 259.612 350.672 264.474C350.241 268.413 350.107 272.776 349.581 276.65C348.924 281.495 348.032 286.597 347.199 291.436C345.812 299.49 343.922 307.771 341.63 315.624C340.202 320.525 338.199 324.818 336.417 329.502C333.398 337.448 330.289 344.641 326.254 352.135C324.9 354.646 323.81 357.024 322.255 359.496C320.966 361.551 318.666 364.198 317.749 366.22C318.886 369.172 321.861 374.274 323.516 377.326L333.396 395.592C335.107 398.717 336.982 401.855 338.325 405.149C339.485 407.993 337.918 409.475 335.925 411.244C335.092 412.291 334.61 412.951 333.581 413.838C335.401 415.31 338.431 416.346 340.558 417.509C348.189 421.678 356.728 427.863 358.234 437.061C358.968 441.573 357.22 447.376 354.266 450.921C339.333 468.842 307.513 475.875 285.565 479.363C279.986 480.25 268.067 481.341 262.483 481.47C232.469 482.163 194.127 480.008 168.661 462.332C163.95 459.063 159.354 452.889 158.712 447.17C158.093 441.666 160.213 436.945 163.563 432.679C168.423 426.489 174.821 423.152 181.688 419.801C180.84 418.924 179.669 417.893 178.666 417.207C171.791 412.507 174.309 411.628 177.989 405.559C180.36 401.597 182.704 397.616 185.02 393.62C187.942 388.518 190.54 382.926 193.365 377.695C186.273 371.657 180.216 364.498 175.434 356.503C167.777 343.661 163.132 328.288 159.747 313.747C158.523 308.493 157.989 299.841 157.492 294.339C155.871 276.382 155.361 259.82 159.855 242.216C153.359 239.831 145.544 237.639 138.853 235.649L115.88 228.64C107.888 234.426 98.955 239.179 90.7373 244.669C88.1184 246.419 85.5142 248.201 82.7829 249.77C78.1275 248.037 47.2896 236.046 45.8301 234.737C45.5045 234.445 45.1492 233.926 45.1544 233.478C45.1971 229.838 66.9081 217.231 70.4085 213.3C70.8599 212.793 71.1116 212.445 70.9569 211.754C70.5093 209.752 68.9369 207.472 67.9639 205.622C65.7034 201.323 55.7052 183.617 55.4469 180.464C56.9752 177.163 64.9833 180.353 67.77 181.091L83.636 185.304L98.1836 189.156C101.641 190.057 105.862 191.056 109.158 192.32C110.515 195.611 111.436 202.041 112.371 205.758C113.798 211.43 115.451 216.386 117.309 221.945C122.111 224.036 129.83 226.155 135.066 227.741C143.976 230.499 152.908 233.186 161.861 235.801ZM276.854 391.702C277.697 395.768 277.952 399.38 279.244 403.427C287.288 403.461 296.363 404.835 304.332 406.044C307.369 406.503 313.278 408.279 316.008 408.256C313.845 404.092 301.457 387.077 298.131 384.109C293.328 388.706 283.121 389.938 276.854 391.702ZM201.271 411.775C211.763 407.836 243.172 402.667 254.651 403.407C254.08 401.153 253.292 398.854 252.576 396.634C242.497 397.822 233.04 396.44 223.158 394.772C219.064 394.081 213.255 394.208 209.432 393.009C206.492 399.408 204.054 405.541 201.271 411.775ZM76.5525 241.703C78.8925 242.447 80.42 243.141 82.6471 244.142C83.9516 244.159 107.716 229.904 109.929 227.703C107.872 226.588 106.955 226.178 104.539 225.794C102.257 227.233 99.7238 228.659 97.3284 229.927C90.3063 233.642 83.5146 237.919 76.5525 241.703ZM105.444 218.367C107.345 219.08 108.471 219.543 110.461 219.891C109.904 214.842 105.872 203.53 104.544 197.634C101.951 196.814 99.0272 195.803 96.3915 195.266C98.9681 202.229 102.57 211.483 105.444 218.367ZM78.0922 222.873C75.9714 224.115 67.6406 230.19 65.674 231.793C66.5369 232.743 66.0793 233.132 67.598 233.793L67.8239 234.231C68.3906 233.969 72.2145 231.21 72.9761 230.645C76.6582 227.913 80.7377 225.22 84.3267 222.412C85.4748 221.628 86.099 221.201 87.1506 220.245C85.8154 219.733 84.7645 219.317 83.3697 218.948C81.5771 220.205 79.7391 221.434 78.0922 222.873ZM79.5765 217.675C77.9061 217.222 77.1909 216.927 75.6159 216.199C73.3855 217.733 71.1464 219.255 68.8987 220.763L68.1915 221.206L67.0193 222.06C67.234 222.624 67.1435 222.813 67.1095 223.452C68.774 225.099 73.3141 219.79 76.5881 219.806C77.6831 219.224 78.5965 218.441 79.5765 217.675ZM74.3954 189.3C75.0505 190.678 77.0215 194.96 77.7413 196.003C80.0449 201.151 83.1493 207.124 85.6932 212.245C87.7312 213.126 89.0339 213.405 91.2171 213.932C88.3433 206.918 84.7413 200.053 81.7787 193.049L80.7173 191.126C78.4457 190.347 76.7317 189.879 74.3954 189.3ZM92.4686 197.791C91.8764 196.123 91.4345 195.207 90.6445 193.617L85.465 192.315C86.0417 193.751 87.7376 198.068 88.5678 199.076L88.8122 198.972C89.6535 199.619 89.9018 199.859 90.8232 199.752C91.28 198.866 91.4917 198.181 92.4686 197.791ZM91.016 227.511C91.6944 227.318 96.6037 224.233 97.9526 223.573C96.3629 223.017 94.7791 222.445 93.2013 221.857C91.6085 222.916 89.9056 224.001 88.4129 225.181L88.4814 225.727C87.9307 226.337 86.505 227.554 86.3761 228.235C86.7701 228.501 86.5924 228.411 86.8892 228.542C88.3347 228.161 88.846 228.004 90.2532 227.384L91.016 227.511Z" fill="#0A0909"/>
<path d="M271.117 385.708C274.719 384.331 278.364 383.759 282.043 382.622C285.988 381.402 289.894 379.853 293.754 378.373C295.282 380.152 296.734 382.212 298.131 384.109C293.328 388.706 283.121 389.939 276.854 391.702C277.697 395.768 277.952 399.38 279.244 403.427C287.287 403.461 296.363 404.835 304.332 406.044C307.369 406.503 313.278 408.279 316.008 408.256C318.803 411.213 321.358 415.978 324.233 418.7C326.679 417.793 332.225 414.175 333.581 413.838C335.401 415.31 338.431 416.346 340.558 417.509C348.189 421.678 356.728 427.863 358.233 437.061C358.968 441.573 357.22 447.377 354.266 450.921C339.333 468.842 307.513 475.875 285.565 479.363C279.986 480.25 268.067 481.341 262.483 481.47C232.468 482.163 194.127 480.008 168.661 462.332C163.95 459.063 159.354 452.889 158.712 447.17C158.093 441.666 160.213 436.945 163.563 432.679C168.423 426.489 174.821 423.152 181.688 419.801C183.944 420.855 186.243 423.676 188.813 422.944C190.872 420.85 196.346 408.426 197.831 405.103C200.455 399.228 205.015 390.64 206.968 384.713C212.791 387.087 217.14 387.036 222.966 388.041C232.698 389.717 240.536 389.864 250.375 389.686C251.019 391.911 251.869 394.406 252.576 396.634C242.497 397.822 233.04 396.441 223.158 394.772C219.064 394.082 213.254 394.208 209.432 393.009C206.491 399.408 204.054 405.541 201.271 411.775C211.763 407.836 243.172 402.667 254.651 403.407C259.072 416.913 263.12 430.59 267.503 444.11C268.145 446.085 268.665 448.124 269.155 450.143C273.933 450.7 280.46 450.674 285.251 450.272C283.505 437.072 280.442 424.815 277.019 411.984C274.734 403.425 273.425 394.337 271.117 385.708Z" fill="#C4C4C4"/>
<path d="M316.181 165.658C320.871 166.463 324.756 169.583 327.416 173.378C332.318 180.363 335.661 188.181 339.201 195.845C347.271 213.31 352.646 230.252 351.855 249.695C351.656 254.565 351.203 259.612 350.672 264.474C350.241 268.413 350.107 272.775 349.581 276.65C348.924 281.495 348.031 286.597 347.199 291.436C345.812 299.49 343.922 307.771 341.63 315.624C340.202 320.525 338.198 324.817 336.417 329.502C333.398 337.448 330.289 344.641 326.254 352.135C324.9 354.646 323.81 357.023 322.255 359.496C320.966 361.551 318.666 364.198 317.748 366.22C318.885 369.172 321.861 374.274 323.516 377.326L333.395 395.592C335.107 398.717 336.981 401.854 338.325 405.149C339.485 407.993 337.917 409.475 335.924 411.244C335.37 409.259 330.111 399.511 328.793 396.995C322.9 385.739 317.429 372.964 311.391 361.95C313.396 359.125 317.457 355.015 318.754 352.986C322.193 347.595 327.068 339.559 329.809 333.846C334.733 323.876 337.067 312.894 339.962 302.347C344.205 286.886 347.121 271.86 347.547 255.785C347.794 246.414 346.632 235.391 345.038 226.098C343.664 218.068 340.135 209.806 337.121 202.287C334.334 195.44 331.841 189.132 327.971 182.8C326.295 180.057 325.024 177.088 323.204 174.347C321.128 171.246 318.78 168.337 316.181 165.658Z" fill="#FEF9EF"/>
<path d="M250.421 153.235C274.237 151.799 286.125 165.352 298.853 183.421C303.744 190.359 306.895 199.825 309.888 207.619C320.639 235.625 319.948 266.629 314.735 295.738C309.919 315.373 298.99 334.16 287.638 350.725C281.938 357.193 272.791 367.274 265.556 371.623C248.82 381.564 229.9 384.648 211.022 379.535C199.376 376.382 190.011 365.894 182.699 356.827C168.166 338.914 164.691 314.711 161.792 292.58C159.375 274.126 160.323 262.011 164.835 244.043C170.248 245.527 175.779 247.585 181.298 249.132C179.971 259.578 177.325 270.318 177.868 280.845C178.634 295.674 180.897 310.973 185.183 325.204C188.459 334.511 195.92 348.801 204.616 354.071C213.727 359.485 230.33 360.986 240.685 358.307C258.562 353.682 272.056 334.642 280.878 319.767C289.526 305.185 295.865 292.451 298.168 275.572C298.74 271.37 300.091 266.972 300.289 262.674C299.508 252.384 300.261 241.836 297.838 231.767C292.831 213.675 284.196 191.206 267.877 180.434C260.214 175.374 244.695 173.277 236.004 175.639C225.403 179.361 214.028 191.331 207.225 200.108C202.118 206.697 197.364 215.556 192.813 222.567C189.327 227.938 187.136 236.887 183.684 242.341C178.702 240.657 172.408 238.646 167.363 237.372C175.627 219.462 179.648 202.303 193.187 186.758C207.134 170.746 228.931 155.485 250.421 153.235Z" fill="#FEF9EF"/>
<path d="M288.406 160.5C290.154 160.707 306.286 167.185 308.647 168.416C318.919 173.772 334.47 207.756 338.064 219.027C339.619 223.896 340.256 228.929 340.802 233.989C343.599 259.876 338.152 294.234 329.383 318.652C328.259 321.779 326.805 324.811 325.496 327.863C324.24 330.792 323.049 333.803 321.574 336.626C311.352 356.189 300.044 372.109 277.98 379.026C272.785 380.336 267.574 380.797 262.276 381.501C266.961 377.464 272.081 373.679 276.732 369.642C289.68 358.396 299.386 342.597 307.17 327.495C308.794 324.347 311.494 319.598 312.713 316.373C317.485 303.737 321.618 288.194 323.418 274.795C323.962 267.997 323.858 260.992 323.967 254.202C324.106 245.255 323.848 237.696 322.244 228.889C320.736 218.041 316.469 208.297 312.713 198.161C307.098 183.005 298.786 172.699 288.406 160.5Z" fill="#FEF9EF"/>
<path d="M241.389 213.518C247.142 213.101 251.854 214.873 255.66 219.259C259.296 223.448 262.839 232.28 264.455 237.538C267.376 247.029 267.232 258.215 267.219 268.073C267.216 271.002 266.105 274.534 265.577 277.411C262.779 290.157 257.465 301.349 248.966 311.28C247.128 313.428 245.505 315.64 243.324 317.542C239.221 321.165 233.823 322.964 228.367 322.531C224.683 322.232 220.638 320.26 218.541 317.346C208.999 304.079 207.977 273.106 209.294 257.918L213.532 259.109C216.228 259.988 218.444 260.682 221.203 261.378C221.017 271.198 222.994 286.507 233.535 290.859C236.555 292.091 239.949 292.019 242.916 290.663C259.997 283.06 260.113 241.602 242.614 235.961C239.508 234.961 236.129 235.259 233.245 236.786C226.803 240.194 224.162 247.572 222.177 254.042C219.441 252.91 213.998 251.437 210.827 250.373C211.984 245.214 216.551 234.996 219.467 230.646C226.069 220.797 229.879 216.131 241.389 213.518Z" fill="#FEF9EF"/>
<path d="M264.017 388.349C264.612 388.199 264.398 388.204 264.984 388.333C265.455 389.135 267.229 396.261 267.51 397.516C271.166 413.911 275.812 430.519 278.846 447.014C277.593 446.98 275.624 447.024 274.528 446.565L274.278 445.934C272.081 440.326 269.586 430.991 267.817 425.058L257.318 389.643C259.595 389.163 261.714 388.725 264.017 388.349Z" fill="#FEFEFE"/>
<path d="M305.553 368.334C307.466 369.324 327.69 405.652 329.927 409.744C328.589 410.54 327.965 410.938 326.72 411.909L325.047 409.569C316.446 398.372 307.149 385.837 298.296 374.957C300.712 372.835 303.174 370.515 305.553 368.334Z" fill="#FEFEFE"/>
<path d="M197.641 380.949C199.725 381.689 200.738 382.091 202.69 383.102C197.215 393.791 192.374 404.967 186.658 415.901C184.966 414.834 183.219 413.529 181.582 412.359C186.571 401.917 192.633 391.424 197.641 380.949Z" fill="#FEFEFE"/>
<path d="M104.539 225.795C106.955 226.179 107.872 226.589 109.93 227.704C107.716 229.904 83.9518 244.159 82.6473 244.142C80.4202 243.142 78.8927 242.448 76.5527 241.704C83.5148 237.92 90.3065 233.643 97.3286 229.927C99.724 228.66 102.258 227.234 104.539 225.795Z" fill="#FEFEFE" fill-opacity="0.976471"/>
<path d="M96.3916 195.266C99.0273 195.802 101.951 196.814 104.545 197.634C105.872 203.53 109.905 214.842 110.461 219.891C108.471 219.543 107.345 219.08 105.444 218.367C102.57 211.483 98.9682 202.229 96.3916 195.266Z" fill="#DFDFDE" fill-opacity="0.85098"/>
<path d="M77.7412 196.002L78.3342 195.806C79.292 194.078 80.0536 193.7 81.7786 193.049C84.7412 200.052 88.3431 206.917 91.217 213.931C89.0338 213.404 87.7311 213.126 85.693 212.245C83.1492 207.124 80.0448 201.151 77.7412 196.002Z" fill="#F3F1F2" fill-opacity="0.984314"/>
<path d="M65.6455 187.008C67.4933 187.357 68.4181 187.574 70.2011 188.153C71.5201 190.655 72.9327 194.224 74.114 196.897C76.1647 201.472 78.303 206.008 80.5272 210.501C79.1151 210.264 77.0116 209.708 75.5637 209.374C73.3145 203.892 70.4375 198.749 68.186 193.273C67.3283 191.186 66.477 189.105 65.6455 187.008Z" fill="#FEFEFE"/>
<path d="M88.5674 199.076L88.8118 198.972C89.653 199.619 89.9013 199.859 90.8228 199.752C91.2796 198.866 91.4913 198.181 92.4681 197.791C95.1572 204.061 97.9947 210.487 100.486 216.826L96.1676 215.621C93.7214 210.424 90.7774 204.315 88.5674 199.076Z" fill="#FEFEFE"/>
<path d="M67.0196 222.061C67.2344 222.624 67.1439 222.813 67.1099 223.452C68.7743 225.099 73.3145 219.79 76.5885 219.807C73.5579 222.304 69.4465 225.024 66.1585 227.31C63.1668 229.389 59.9333 231.789 56.9382 233.756C55.4728 233.047 54.2948 232.495 52.7822 231.897C56.7611 228.989 62.8685 224.731 67.0196 222.061Z" fill="#EFECEC"/>
<path d="M88.4125 225.182L88.4811 225.728C87.9304 226.338 86.5046 227.554 86.3757 228.235C86.7697 228.501 86.592 228.411 86.8888 228.542C88.3344 228.161 88.8456 228.005 90.2528 227.384L91.0157 227.512C86.2466 230.786 76.3059 236.718 71.2558 239.444C70.3506 238.979 69.2423 238.512 68.3018 238.085C73.9735 234.006 82.3587 229.017 88.4125 225.182Z" fill="#FEFEFE"/>
<path d="M82.9042 220.545C83.5954 220.447 84.0162 220.296 84.6151 220.625C84.3895 221.394 84.3057 221.461 83.8914 222.124L84.3266 222.412C80.7375 225.22 76.6581 227.913 72.976 230.645C72.2144 231.21 68.3904 233.969 67.8238 234.231L67.5979 233.793C66.0791 233.132 66.5367 232.743 65.6738 231.793C67.6405 230.19 75.9713 224.115 78.0921 222.873C78.9813 222.976 80.8053 222.178 81.7737 221.838C80.9866 222.781 79.7176 223.153 78.5412 223.665L79.3131 223.877L79.5031 224.425C80.7845 223.023 83.6246 222.75 83.7684 221.025L82.9042 220.545Z" fill="#EFECEC" fill-opacity="0.964706"/>
<path d="M93.2012 221.857C94.779 222.445 96.3628 223.017 97.9525 223.573C96.6036 224.234 91.6942 227.319 91.0159 227.512L90.253 227.384C88.8459 228.005 88.3346 228.161 86.889 228.542C86.5923 228.411 86.7699 228.502 86.376 228.235C86.5049 227.554 87.9306 226.338 88.4813 225.728L88.4127 225.182C89.9055 224.002 91.6084 222.917 93.2012 221.857Z" fill="#EFECEC" fill-opacity="0.854902"/>
<path d="M75.6162 216.199C77.1912 216.927 77.9063 217.222 79.5767 217.675C78.5968 218.441 77.6833 219.224 76.5884 219.806C73.3144 219.79 68.7742 225.099 67.1098 223.452C67.1438 222.813 67.2343 222.624 67.0195 222.06L68.1918 221.206C68.1382 221.834 68.1591 221.892 68.2024 222.525C68.8719 222.942 68.5038 222.852 69.3649 222.695C69.9488 221.922 69.855 222.33 69.7792 221.466L68.899 220.763C71.1467 219.255 73.3858 217.733 75.6162 216.199Z" fill="#DFDFDE" fill-opacity="0.87451"/>
<path d="M85.4648 192.316L90.6444 193.618C91.4343 195.208 91.8762 196.125 92.4684 197.792C91.4916 198.182 91.2799 198.867 90.823 199.753C89.9016 199.86 89.6533 199.62 88.8121 198.974L88.5677 199.077C87.7375 198.07 86.0416 193.752 85.4648 192.316Z" fill="#DFDFDE" fill-opacity="0.623529"/>
<path d="M74.3955 189.301C76.7318 189.88 78.4458 190.348 80.7174 191.127L81.7789 193.05C80.0538 193.701 79.2922 194.079 78.3344 195.807L77.7414 196.004C77.0216 194.961 75.0506 190.679 74.3955 189.301Z" fill="#DFDFDE" fill-opacity="0.741176"/>
<path d="M60.7061 235.211C62.3473 233.835 63.872 232.924 65.6734 231.793C66.5363 232.743 66.0787 233.132 67.5975 233.793L67.8233 234.231C66.7751 235.159 65.5736 235.895 64.4024 236.671C63.1777 236.218 61.9232 235.696 60.7061 235.211Z" fill="#EFECEC"/>
<path d="M83.3693 218.949C84.7641 219.318 85.8149 219.734 87.1502 220.246C86.0985 221.201 85.4744 221.628 84.3263 222.412L83.8911 222.125C84.3054 221.462 84.3892 221.394 84.6148 220.626C84.0159 220.297 83.5951 220.448 82.9039 220.546C82.6113 220.866 81.981 221.508 81.7734 221.839C80.8051 222.178 78.981 222.977 78.0918 222.873C79.7387 221.435 81.5767 220.206 83.3693 218.949Z" fill="#EFECEC" fill-opacity="0.988235"/>
<path d="M82.904 220.545L83.7682 221.025C83.6244 222.749 80.7843 223.022 79.5029 224.425L79.3129 223.877L78.541 223.665C79.7174 223.153 80.9864 222.781 81.7735 221.838C81.9811 221.507 82.6114 220.865 82.904 220.545Z" fill="#EFECEC" fill-opacity="0.905882"/>
<path d="M68.8984 220.764L69.7786 221.466C69.8544 222.33 69.9482 221.923 69.3642 222.695C68.5031 222.852 68.8713 222.942 68.2017 222.526C68.1584 221.892 68.1376 221.834 68.1912 221.207L68.8984 220.764Z" fill="#EFECEC" fill-opacity="0.823529"/>
<path d="M361.662 351.332C364.674 351.178 368.09 354.001 370.712 355.602L384.044 363.73C387.604 365.909 391.188 368.051 394.792 370.158C397.105 371.509 403.31 374.525 404.055 376.894C403.916 377.964 403.821 378.011 403.119 378.89C400.588 379.075 398.185 377.026 395.991 375.688L384.41 368.644C380.197 366.069 375.964 363.522 371.712 361.005C368.75 359.27 365.733 357.613 362.848 355.756C360.905 354.503 360.397 353.312 361.662 351.332Z" fill="#0A0909" fill-opacity="0.976471"/>
<path d="M410.758 184.391C412.256 184.248 413.937 184.148 415.01 185.377C415.672 187.628 413.837 188.298 412.053 188.79C407.92 189.928 403.741 190.918 399.587 191.989C391.742 194.082 383.866 196.062 375.961 197.93C371.802 199.084 371.207 195.034 374.739 193.934C378.9 192.638 383.18 191.641 387.405 190.551C395.204 188.551 402.988 186.498 410.758 184.391Z" fill="#0A0909"/>
<path d="M374.218 276.395C377.524 276.281 389.087 278.473 392.789 278.958C399.618 279.963 406.494 280.793 413.296 281.964C415.049 282.265 416.475 282.51 416.57 284.513C416.163 285.475 416.116 285.488 415.219 286.086C401.807 285.024 387.865 282.216 374.481 280.504C372.354 280.231 371.599 277.862 374.218 276.395Z" fill="#0A0909" fill-opacity="0.988235"/>
<path d="M249.635 77.4844C251.081 77.5579 252.019 77.9961 252.206 79.5776C253.586 91.2498 254.195 103.068 255.057 114.794C255.172 116.356 254.811 117.01 253.783 118.088C252.02 117.811 250.615 117.468 250.427 115.431C249.878 109.479 249.656 103.453 249.316 97.4824C248.996 91.8731 248.327 86.3193 248.272 80.7065C248.255 78.9297 248.367 78.7466 249.635 77.4844Z" fill="#0A0909" fill-opacity="0.988235"/>
<path d="M368.812 104.059C370.371 104.119 371.191 104.726 371.454 106.28C370.696 109.157 354.717 124.653 351.86 128.502C351.012 129.645 346.583 134.247 345.371 135.165C342.452 135.53 342.192 133.001 343.767 131.177C350.13 123.812 356.973 116.838 363.434 109.55C365.066 107.71 366.924 105.604 368.812 104.059Z" fill="#0A0909" fill-opacity="0.984314"/>
<path d="M145.71 105.365C148.181 105.809 149.237 107.344 150.879 109.139C157.714 116.613 164.864 123.82 171.708 131.277C173.317 133.03 172.997 134.152 171.594 135.853C170.242 135.482 169.459 134.976 168.49 133.95C160.654 125.65 152.619 117.453 145.094 108.877C144.602 108.316 144.45 107.847 144.433 107.125C144.688 106.229 145.041 106.011 145.71 105.365Z" fill="#0A0909" fill-opacity="0.976471"/>
</svg>
